<svg xmlns="http://www.w3.org/2000/svg" width="226" height="80" viewBox="0 0 226 80" fill="none"><g clip-path="url(#clip0_5_208)"><path d="M69.2147 25.3134C68.1625 25.9104 66.8764 25.5522 66.4087 24.4776L53.6648 0L40.9209 24.4776C40.3363 25.5522 39.0502 25.9104 38.1149 25.3134L25.371 17.791L31.0999 44.1791L53.5479 71.5224L75.9959 44.1791L81.8417 17.6716L69.2147 25.3134ZM53.6648 45.6119C50.2742 45.6119 47.4682 42.7463 47.4682 39.2836C47.4682 35.8209 50.2742 32.9552 53.6648 32.9552C57.0554 32.9552 59.8614 35.8209 59.8614 39.2836C59.8614 42.8657 57.0554 45.6119 53.6648 45.6119Z" fill="#D13B32"></path><path d="M49.9235 79.403L81.9586 40.3582C81.9586 40.3582 84.0631 37.2537 85.8169 38.5671C87.5706 39.7612 86.0507 41.791 85.2323 42.985C84.4139 44.1791 79.0357 52.4179 79.0357 52.4179C79.0357 52.4179 77.1651 54.3283 77.9835 55.5224C78.9188 56.8358 84.8816 54.3283 92.8319 49.791C100.782 45.2537 107.213 40.7164 107.213 40.7164C107.213 40.7164 97.0409 69.1343 69.7993 77.1343C53.0802 81.9104 49.9235 79.403 49.9235 79.403Z" fill="#D13B32"></path><path d="M52.2618 73.0746L25.3709 40.2388C25.3709 40.2388 23.2664 37.1343 21.5127 38.4478C19.7589 39.6418 21.2788 41.6716 22.0973 42.8657C22.9157 44.0597 28.2938 52.2985 28.2938 52.2985C28.2938 52.2985 30.1645 54.2089 29.3461 55.403C28.4108 56.7164 22.448 54.2089 14.4977 49.6716C6.43042 45.1343 0 40.597 0 40.597C0 40.597 10.1718 69.0149 37.4134 77.0149C41.3885 78.209 44.5453 78.9254 47.1174 79.403L52.2618 73.0746Z" fill="#D13B32"></path><path d="M122.529 33.4327C120.658 33.4327 119.723 34.5073 119.723 36.6566V38.3282C119.723 40.4775 120.658 41.5521 122.529 41.5521C124.399 41.5521 125.335 40.4775 125.335 38.3282V36.6566C125.335 34.5073 124.399 33.4327 122.529 33.4327ZM122.529 29.6118C125.101 29.6118 127.205 30.3282 128.725 31.6417C130.245 32.9551 130.947 34.985 130.947 37.6118C130.947 40.2387 130.245 42.1491 128.725 43.582C127.205 44.8954 125.218 45.6118 122.529 45.6118C119.957 45.6118 117.852 44.8954 116.332 43.582C114.812 42.2685 114.111 40.2387 114.111 37.6118C114.111 34.985 114.812 33.0745 116.332 31.6417C117.852 30.2088 119.84 29.6118 122.529 29.6118Z" fill="black"></path><path d="M141.703 33.791C140.885 33.791 140.3 34.1492 139.832 34.7462C139.365 35.3432 139.248 36.1791 139.248 37.1343V38.0895C139.248 39.0447 139.482 39.8806 139.832 40.4776C140.3 41.0746 140.885 41.3134 141.703 41.3134C143.34 41.3134 144.158 40.3582 144.158 38.3283V36.7761C144.158 34.7462 143.34 33.791 141.703 33.791ZM139.248 31.2835C140.3 30.0895 141.703 29.4925 143.457 29.4925C145.444 29.4925 146.964 30.2089 148.133 31.5224C149.186 32.8358 149.77 34.8656 149.77 37.4925C149.77 40.1194 149.186 42.1492 148.133 43.4627C147.081 44.7761 145.444 45.4925 143.457 45.4925C141.352 45.4925 139.832 44.6567 138.663 42.985L138.195 45.1343H133.636V24.2388H139.248V31.2835Z" fill="black"></path><path d="M160.41 33.1939C158.656 33.1939 157.604 34.0297 157.487 35.7014H162.982C162.982 34.8655 162.748 34.2685 162.28 33.7909C161.813 33.4327 161.111 33.1939 160.41 33.1939ZM160.176 29.6118C162.865 29.6118 164.97 30.2088 166.373 31.5223C167.776 32.8357 168.477 34.8655 168.477 37.4924V38.4476H157.253C157.253 39.5223 157.487 40.3581 157.955 40.9551C158.422 41.5521 159.241 41.7909 160.176 41.7909C161.111 41.7909 161.813 41.5521 162.28 41.1939C162.748 40.8357 162.982 40.2387 162.982 39.5223H168.477C168.477 41.3133 167.776 42.7461 166.373 43.8208C164.97 44.8954 162.982 45.373 160.41 45.373C157.604 45.373 155.499 44.6566 153.979 43.3432C152.459 42.0297 151.641 39.9999 151.641 37.373C151.641 34.7461 152.343 32.8357 153.862 31.4029C155.499 30.2088 157.487 29.6118 160.176 29.6118Z" fill="black"></path><path d="M178.298 29.6118C180.286 29.6118 181.922 29.97 183.325 30.8058C184.728 31.6417 185.43 32.8357 185.43 34.5073H180.169C180.169 33.9103 179.935 33.5521 179.467 33.3133C179.116 33.0745 178.649 33.0745 178.181 33.0745C176.778 33.0745 176.194 33.4327 176.194 34.0297C176.194 34.3879 176.427 34.6267 176.895 34.8656C177.363 34.985 178.181 35.2238 179.233 35.3432C180.519 35.582 181.689 35.7014 182.507 36.0596C183.442 36.2984 184.144 36.776 184.845 37.4924C185.547 38.2088 185.781 39.0447 185.781 40.2387C185.781 42.1491 185.079 43.582 183.676 44.4178C182.273 45.2536 180.403 45.6118 178.064 45.6118C176.778 45.6118 175.492 45.373 174.323 45.0148C173.154 44.6566 172.218 44.0596 171.517 43.2238C170.815 42.3879 170.465 41.4327 170.465 40.2387H175.726V40.3581C175.726 40.9551 175.96 41.4327 176.544 41.6715C177.012 41.9103 177.597 42.0297 178.181 42.0297C179.701 42.0297 180.519 41.6715 180.519 40.9551C180.519 40.5969 180.286 40.2387 179.818 40.1193C179.35 39.9999 178.532 39.7611 177.363 39.5223C176.077 39.2835 174.907 39.0447 174.089 38.8058C173.271 38.567 172.452 38.0894 171.868 37.4924C171.283 36.8954 170.932 35.9402 170.932 34.7461C170.932 32.8357 171.634 31.5223 173.037 30.8058C174.323 29.97 176.077 29.6118 178.298 29.6118Z" fill="black"></path><path d="M188.704 45.1343V29.9701H194.316V45.1343H188.704ZM188.704 28.1791V24.2388H194.316V28.1791H188.704Z" fill="black"></path><path d="M207.878 29.9702V33.9105H204.721V39.6419C204.721 40.3583 204.838 40.8359 205.072 41.1941C205.306 41.5523 205.656 41.6717 206.358 41.6717H207.995V45.015C207.527 45.1344 206.943 45.2538 206.241 45.3732C205.54 45.4926 204.955 45.4926 204.37 45.4926C202.734 45.4926 201.447 45.1344 200.512 44.5374C199.577 43.9404 199.226 42.8657 199.226 41.4329V33.7911H197.122V29.8508H199.46L200.629 25.1941H204.838V29.8508H207.878V29.9702Z" fill="black"></path><path d="M220.622 44.6568C219.803 46.806 218.868 48.3583 217.816 49.5523C216.764 50.7463 215.127 51.2239 213.139 51.2239C211.97 51.2239 210.801 51.1045 209.865 50.7463V47.2836H212.087C213.49 47.2836 214.308 46.5672 214.542 45.1344L208.579 29.9702H214.659L217.465 40.1195H217.699L220.271 29.9702H225.766L220.622 44.6568Z" fill="black"></path><path d="M122.529 58.3882C124.984 58.3882 126.972 58.8658 128.491 59.9404C130.011 61.015 130.713 62.6867 130.713 64.8359H125.218C125.218 63.1643 124.282 62.2091 122.412 62.2091C120.541 62.2091 119.606 63.2837 119.606 65.433V67.1046C119.606 69.2539 120.541 70.3285 122.529 70.3285C124.399 70.3285 125.452 69.4927 125.452 67.7016H130.713C130.713 69.8509 130.011 71.5225 128.491 72.5971C126.972 73.6718 124.984 74.2688 122.529 74.2688C119.957 74.2688 117.852 73.5524 116.332 72.2389C114.812 70.9255 114.111 68.8956 114.111 66.2688C114.111 63.6419 114.812 61.7315 116.332 60.2986C117.852 59.1046 119.84 58.3882 122.529 58.3882Z" fill="black"></path><path d="M143.106 67.3434C141.469 67.3434 140.3 67.4628 139.599 67.821C138.78 68.1792 138.429 68.6568 138.429 69.2539C138.429 70.2091 139.014 70.6867 140.3 70.6867C141.002 70.6867 141.703 70.4479 142.288 70.0897C142.872 69.7315 143.106 69.1345 143.106 68.5374V67.3434ZM141.002 58.3882C143.223 58.3882 145.094 58.7464 146.614 59.5822C148.017 60.418 148.718 61.6121 148.718 63.4031V69.3733C148.718 69.7315 148.835 69.9703 148.952 70.2091C149.069 70.4479 149.303 70.5673 149.653 70.5673H150.706V73.9106C150.706 73.9106 150.472 74.03 150.238 74.1494C150.004 74.2688 149.653 74.2688 149.186 74.3882C148.718 74.5076 148.25 74.5076 147.666 74.5076C146.614 74.5076 145.678 74.3882 144.977 74.03C144.275 73.6718 143.808 73.1941 143.574 72.5971C142.872 73.1941 142.054 73.6718 141.235 74.03C140.3 74.3882 139.365 74.5076 138.079 74.5076C134.571 74.5076 132.817 73.0747 132.817 70.2091C132.817 68.7762 133.168 67.5822 133.987 66.8658C134.805 66.03 135.857 65.5524 137.377 65.3136C138.897 65.0747 140.768 64.8359 143.106 64.8359V64.1195C143.106 63.5225 142.872 63.0449 142.521 62.8061C142.171 62.4479 141.586 62.3285 141.002 62.3285C140.417 62.3285 139.949 62.4479 139.482 62.6867C139.014 62.9255 138.897 63.2837 138.897 63.6419V63.7613H133.402C133.402 63.6419 133.402 63.5225 133.402 63.4031C133.402 61.9703 134.103 60.7762 135.39 59.9404C136.559 58.7464 138.429 58.3882 141.002 58.3882Z" fill="black"></path><path d="M162.631 58.3882C164.385 58.3882 165.671 58.8658 166.489 59.821C167.308 60.7762 167.776 62.2091 167.776 64.0001V73.7912H162.164V64.5971C162.164 64.0001 162.047 63.4031 161.696 63.0449C161.345 62.6867 160.877 62.4479 160.293 62.4479C159.591 62.4479 159.007 62.6867 158.656 63.1643C158.188 63.6419 157.955 64.2389 157.955 64.8359V73.7912H152.343V58.7464H156.902L157.253 61.015C157.838 60.1792 158.656 59.5822 159.591 59.1046C160.644 58.627 161.579 58.3882 162.631 58.3882Z" fill="black"></path><path d="M180.636 67.3434C178.999 67.3434 177.83 67.4628 177.129 67.821C176.31 68.1792 175.96 68.6568 175.96 69.2539C175.96 70.2091 176.544 70.6867 177.83 70.6867C178.532 70.6867 179.233 70.4479 179.818 70.0897C180.403 69.7315 180.636 69.1345 180.636 68.5374V67.3434ZM178.649 58.3882C180.87 58.3882 182.741 58.7464 184.261 59.5822C185.664 60.418 186.365 61.6121 186.365 63.4031V69.3733C186.365 69.7315 186.482 69.9703 186.599 70.2091C186.716 70.4479 186.95 70.5673 187.301 70.5673H188.353V73.9106C188.353 73.9106 188.119 74.03 187.885 74.1494C187.651 74.2688 187.301 74.2688 186.833 74.3882C186.365 74.5076 185.898 74.5076 185.313 74.5076C184.261 74.5076 183.325 74.3882 182.624 74.03C181.922 73.6718 181.455 73.1941 181.221 72.5971C180.519 73.1941 179.701 73.6718 178.766 74.03C177.83 74.3882 176.895 74.5076 175.609 74.5076C172.101 74.5076 170.348 73.0747 170.348 70.2091C170.348 68.7762 170.698 67.5822 171.517 66.8658C172.335 66.03 173.388 65.5524 174.907 65.3136C176.427 65.0747 178.298 64.8359 180.636 64.8359V64.1195C180.636 63.5225 180.402 63.0449 180.052 62.8061C179.701 62.4479 179.116 62.3285 178.532 62.3285C177.947 62.3285 177.48 62.4479 177.012 62.6867C176.544 62.9255 176.427 63.2837 176.427 63.6419V63.7613H170.932C170.932 63.6419 170.932 63.5225 170.932 63.4031C170.932 61.9703 171.634 60.7762 172.92 59.9404C174.206 58.7464 176.077 58.3882 178.649 58.3882Z" fill="black"></path><path d="M197.355 62.5671C195.719 62.5671 194.9 63.5224 194.9 65.5522V67.1044C194.9 69.0149 195.719 70.0895 197.355 70.0895C198.174 70.0895 198.758 69.8507 199.226 69.2537C199.694 68.6567 199.811 67.9403 199.811 66.8656V65.9104C199.811 64.9552 199.577 64.1194 199.226 63.5224C198.875 62.9253 198.174 62.5671 197.355 62.5671ZM200.863 73.9104L200.395 71.7612C199.343 73.4328 197.706 74.2686 195.602 74.2686C193.614 74.2686 192.094 73.5522 190.925 72.2388C189.873 70.9253 189.288 68.8955 189.288 66.2686C189.288 63.6418 189.873 61.7313 190.925 60.2985C191.977 58.985 193.614 58.2686 195.602 58.2686C197.355 58.2686 198.758 58.8656 199.811 60.0597V53.0149H205.423V73.9104H200.863Z" fill="black"></path><path d="M218.284 67.3434C216.647 67.3434 215.478 67.4628 214.776 67.821C213.958 68.1792 213.607 68.6568 213.607 69.2539C213.607 70.2091 214.191 70.6867 215.478 70.6867C216.179 70.6867 216.881 70.4479 217.465 70.0897C218.05 69.7315 218.284 69.1345 218.284 68.5374V67.3434ZM216.179 58.3882C218.4 58.3882 220.271 58.7464 221.791 59.5822C223.194 60.418 223.896 61.6121 223.896 63.4031V69.3733C223.896 69.7315 224.012 69.9703 224.129 70.2091C224.246 70.4479 224.48 70.5673 224.831 70.5673H225.883V73.9106C225.883 73.9106 225.649 74.03 225.415 74.1494C225.182 74.2688 224.831 74.2688 224.363 74.3882C223.896 74.5076 223.428 74.5076 222.843 74.5076C221.791 74.5076 220.856 74.3882 220.154 74.03C219.453 73.6718 218.985 73.1941 218.751 72.5971C218.05 73.1941 217.231 73.6718 216.296 74.03C215.361 74.3882 214.425 74.5076 213.139 74.5076C209.632 74.5076 207.878 73.0747 207.878 70.2091C207.878 68.7762 208.229 67.5822 209.047 66.8658C209.866 66.03 210.918 65.5524 212.438 65.3136C213.958 65.0747 215.828 64.8359 218.167 64.8359V64.1195C218.167 63.5225 217.933 63.0449 217.582 62.8061C217.231 62.4479 216.647 62.3285 216.062 62.3285C215.478 62.3285 215.01 62.4479 214.542 62.6867C214.075 62.9255 213.958 63.2837 213.958 63.6419V63.7613H208.463C208.463 63.6419 208.463 63.5225 208.463 63.4031C208.463 61.9703 209.164 60.7762 210.45 59.9404C211.736 58.7464 213.724 58.3882 216.179 58.3882Z" fill="black"></path></g><defs><clipPath id="clip0_5_208"><rect width="226" height="80" fill="white"></rect></clipPath></defs></svg>